solid exported
	facet normal 1 0 0
		outer loop
			vertex 40 40 1
			vertex 40 0 1
			vertex 40 40 0
		endloop
	endfacet
	facet normal 1 0 0
		outer loop
			vertex 40 0 1
			vertex 40 0 0
			vertex 40 40 0
		endloop
	endfacet
	facet normal -1 0 0
		outer loop
			vertex 0 40 0
			vertex 0 0 0
			vertex 0 40 1
		endloop
	endfacet
	facet normal -1 0 0
		outer loop
			vertex 0 0 0
			vertex 0 0 1
			vertex 0 40 1
		endloop
	endfacet
	facet normal 0 1 0
		outer loop
			vertex 0 40 0
			vertex 0 40 1
			vertex 40 40 0
		endloop
	endfacet
	facet normal 0 1 0
		outer loop
			vertex 0 40 1
			vertex 40 40 1
			vertex 40 40 0
		endloop
	endfacet
	facet normal 0 -1 0
		outer loop
			vertex 0 0 1
			vertex 0 0 0
			vertex 40 0 1
		endloop
	endfacet
	facet normal 0 -1 0
		outer loop
			vertex 0 0 0
			vertex 40 0 0
			vertex 40 0 1
		endloop
	endfacet
	facet normal 0 0 1
		outer loop
			vertex 0 40 1
			vertex 0 0 1
			vertex 40 40 1
		endloop
	endfacet
	facet normal 0 0 1
		outer loop
			vertex 0 0 1
			vertex 40 0 1
			vertex 40 40 1
		endloop
	endfacet
	facet normal 0 0 -1
		outer loop
			vertex 40 40 0
			vertex 40 0 0
			vertex 0 40 0
		endloop
	endfacet
	facet normal 0 0 -1
		outer loop
			vertex 40 0 0
			vertex 0 0 0
			vertex 0 40 0
		endloop
	endfacet
	facet normal 1 0 0
		outer loop
			vertex 10 35 1.399999976158142
			vertex 10 30 1.399999976158142
			vertex 10 35 1
		endloop
	endfacet
	facet normal 1 0 0
		outer loop
			vertex 10 30 1.399999976158142
			vertex 10 30 1
			vertex 10 35 1
		endloop
	endfacet
	facet normal -1 0 0
		outer loop
			vertex 5 35 1
			vertex 5 30 1
			vertex 5 35 1.399999976158142
		endloop
	endfacet
	facet normal -1 0 0
		outer loop
			vertex 5 30 1
			vertex 5 30 1.399999976158142
			vertex 5 35 1.399999976158142
		endloop
	endfacet
	facet normal 0 1 0
		outer loop
			vertex 5 35 1
			vertex 5 35 1.399999976158142
			vertex 10 35 1
		endloop
	endfacet
	facet normal 0 1 0
		outer loop
			vertex 5 35 1.399999976158142
			vertex 10 35 1.399999976158142
			vertex 10 35 1
		endloop
	endfacet
	facet normal 0 -1 0
		outer loop
			vertex 5 30 1.399999976158142
			vertex 5 30 1
			vertex 10 30 1.399999976158142
		endloop
	endfacet
	facet normal 0 -1 0
		outer loop
			vertex 5 30 1
			vertex 10 30 1
			vertex 10 30 1.399999976158142
		endloop
	endfacet
	facet normal 0 0 1
		outer loop
			vertex 5 35 1.399999976158142
			vertex 5 30 1.399999976158142
			vertex 10 35 1.399999976158142
		endloop
	endfacet
	facet normal 0 0 1
		outer loop
			vertex 5 30 1.399999976158142
			vertex 10 30 1.399999976158142
			vertex 10 35 1.399999976158142
		endloop
	endfacet
	facet normal 0 0 -1
		outer loop
			vertex 10 35 1
			vertex 10 30 1
			vertex 5 35 1
		endloop
	endfacet
	facet normal 0 0 -1
		outer loop
			vertex 10 30 1
			vertex 5 30 1
			vertex 5 35 1
		endloop
	endfacet
	facet normal 1 0 0
		outer loop
			vertex 15 35 1.399999976158142
			vertex 15 30 1.399999976158142
			vertex 15 35 1
		endloop
	endfacet
	facet normal 1 0 0
		outer loop
			vertex 15 30 1.399999976158142
			vertex 15 30 1
			vertex 15 35 1
		endloop
	endfacet
	facet normal -1 0 0
		outer loop
			vertex 10 35 1
			vertex 10 30 1
			vertex 10 35 1.399999976158142
		endloop
	endfacet
	facet normal -1 0 0
		outer loop
			vertex 10 30 1
			vertex 10 30 1.399999976158142
			vertex 10 35 1.399999976158142
		endloop
	endfacet
	facet normal 0 1 0
		outer loop
			vertex 10 35 1
			vertex 10 35 1.399999976158142
			vertex 15 35 1
		endloop
	endfacet
	facet normal 0 1 0
		outer loop
			vertex 10 35 1.399999976158142
			vertex 15 35 1.399999976158142
			vertex 15 35 1
		endloop
	endfacet
	facet normal 0 -1 0
		outer loop
			vertex 10 30 1.399999976158142
			vertex 10 30 1
			vertex 15 30 1.399999976158142
		endloop
	endfacet
	facet normal 0 -1 0
		outer loop
			vertex 10 30 1
			vertex 15 30 1
			vertex 15 30 1.399999976158142
		endloop
	endfacet
	facet normal 0 0 1
		outer loop
			vertex 10 35 1.399999976158142
			vertex 10 30 1.399999976158142
			vertex 15 35 1.399999976158142
		endloop
	endfacet
	facet normal 0 0 1
		outer loop
			vertex 10 30 1.399999976158142
			vertex 15 30 1.399999976158142
			vertex 15 35 1.399999976158142
		endloop
	endfacet
	facet normal 0 0 -1
		outer loop
			vertex 15 35 1
			vertex 15 30 1
			vertex 10 35 1
		endloop
	endfacet
	facet normal 0 0 -1
		outer loop
			vertex 15 30 1
			vertex 10 30 1
			vertex 10 35 1
		endloop
	endfacet
	facet normal 1 0 0
		outer loop
			vertex 20 35 1.399999976158142
			vertex 20 30 1.399999976158142
			vertex 20 35 1
		endloop
	endfacet
	facet normal 1 0 0
		outer loop
			vertex 20 30 1.399999976158142
			vertex 20 30 1
			vertex 20 35 1
		endloop
	endfacet
	facet normal -1 0 0
		outer loop
			vertex 15 35 1
			vertex 15 30 1
			vertex 15 35 1.399999976158142
		endloop
	endfacet
	facet normal -1 0 0
		outer loop
			vertex 15 30 1
			vertex 15 30 1.399999976158142
			vertex 15 35 1.399999976158142
		endloop
	endfacet
	facet normal 0 1 0
		outer loop
			vertex 15 35 1
			vertex 15 35 1.399999976158142
			vertex 20 35 1
		endloop
	endfacet
	facet normal 0 1 0
		outer loop
			vertex 15 35 1.399999976158142
			vertex 20 35 1.399999976158142
			vertex 20 35 1
		endloop
	endfacet
	facet normal 0 -1 0
		outer loop
			vertex 15 30 1.399999976158142
			vertex 15 30 1
			vertex 20 30 1.399999976158142
		endloop
	endfacet
	facet normal 0 -1 0
		outer loop
			vertex 15 30 1
			vertex 20 30 1
			vertex 20 30 1.399999976158142
		endloop
	endfacet
	facet normal 0 0 1
		outer loop
			vertex 15 35 1.399999976158142
			vertex 15 30 1.399999976158142
			vertex 20 35 1.399999976158142
		endloop
	endfacet
	facet normal 0 0 1
		outer loop
			vertex 15 30 1.399999976158142
			vertex 20 30 1.399999976158142
			vertex 20 35 1.399999976158142
		endloop
	endfacet
	facet normal 0 0 -1
		outer loop
			vertex 20 35 1
			vertex 20 30 1
			vertex 15 35 1
		endloop
	endfacet
	facet normal 0 0 -1
		outer loop
			vertex 20 30 1
			vertex 15 30 1
			vertex 15 35 1
		endloop
	endfacet
	facet normal 1 0 0
		outer loop
			vertex 25 35 1.399999976158142
			vertex 25 30 1.399999976158142
			vertex 25 35 1
		endloop
	endfacet
	facet normal 1 0 0
		outer loop
			vertex 25 30 1.399999976158142
			vertex 25 30 1
			vertex 25 35 1
		endloop
	endfacet
	facet normal -1 0 0
		outer loop
			vertex 20 35 1
			vertex 20 30 1
			vertex 20 35 1.399999976158142
		endloop
	endfacet
	facet normal -1 0 0
		outer loop
			vertex 20 30 1
			vertex 20 30 1.399999976158142
			vertex 20 35 1.399999976158142
		endloop
	endfacet
	facet normal 0 1 0
		outer loop
			vertex 20 35 1
			vertex 20 35 1.399999976158142
			vertex 25 35 1
		endloop
	endfacet
	facet normal 0 1 0
		outer loop
			vertex 20 35 1.399999976158142
			vertex 25 35 1.399999976158142
			vertex 25 35 1
		endloop
	endfacet
	facet normal 0 -1 0
		outer loop
			vertex 20 30 1.399999976158142
			vertex 20 30 1
			vertex 25 30 1.399999976158142
		endloop
	endfacet
	facet normal 0 -1 0
		outer loop
			vertex 20 30 1
			vertex 25 30 1
			vertex 25 30 1.399999976158142
		endloop
	endfacet
	facet normal 0 0 1
		outer loop
			vertex 20 35 1.399999976158142
			vertex 20 30 1.399999976158142
			vertex 25 35 1.399999976158142
		endloop
	endfacet
	facet normal 0 0 1
		outer loop
			vertex 20 30 1.399999976158142
			vertex 25 30 1.399999976158142
			vertex 25 35 1.399999976158142
		endloop
	endfacet
	facet normal 0 0 -1
		outer loop
			vertex 25 35 1
			vertex 25 30 1
			vertex 20 35 1
		endloop
	endfacet
	facet normal 0 0 -1
		outer loop
			vertex 25 30 1
			vertex 20 30 1
			vertex 20 35 1
		endloop
	endfacet
	facet normal 1 0 0
		outer loop
			vertex 30 35 1.399999976158142
			vertex 30 30 1.399999976158142
			vertex 30 35 1
		endloop
	endfacet
	facet normal 1 0 0
		outer loop
			vertex 30 30 1.399999976158142
			vertex 30 30 1
			vertex 30 35 1
		endloop
	endfacet
	facet normal -1 0 0
		outer loop
			vertex 25 35 1
			vertex 25 30 1
			vertex 25 35 1.399999976158142
		endloop
	endfacet
	facet normal -1 0 0
		outer loop
			vertex 25 30 1
			vertex 25 30 1.399999976158142
			vertex 25 35 1.399999976158142
		endloop
	endfacet
	facet normal 0 1 0
		outer loop
			vertex 25 35 1
			vertex 25 35 1.399999976158142
			vertex 30 35 1
		endloop
	endfacet
	facet normal 0 1 0
		outer loop
			vertex 25 35 1.399999976158142
			vertex 30 35 1.399999976158142
			vertex 30 35 1
		endloop
	endfacet
	facet normal 0 -1 0
		outer loop
			vertex 25 30 1.399999976158142
			vertex 25 30 1
			vertex 30 30 1.399999976158142
		endloop
	endfacet
	facet normal 0 -1 0
		outer loop
			vertex 25 30 1
			vertex 30 30 1
			vertex 30 30 1.399999976158142
		endloop
	endfacet
	facet normal 0 0 1
		outer loop
			vertex 25 35 1.399999976158142
			vertex 25 30 1.399999976158142
			vertex 30 35 1.399999976158142
		endloop
	endfacet
	facet normal 0 0 1
		outer loop
			vertex 25 30 1.399999976158142
			vertex 30 30 1.399999976158142
			vertex 30 35 1.399999976158142
		endloop
	endfacet
	facet normal 0 0 -1
		outer loop
			vertex 30 35 1
			vertex 30 30 1
			vertex 25 35 1
		endloop
	endfacet
	facet normal 0 0 -1
		outer loop
			vertex 30 30 1
			vertex 25 30 1
			vertex 25 35 1
		endloop
	endfacet
	facet normal 1 0 0
		outer loop
			vertex 35 35 1.399999976158142
			vertex 35 30 1.399999976158142
			vertex 35 35 1
		endloop
	endfacet
	facet normal 1 0 0
		outer loop
			vertex 35 30 1.399999976158142
			vertex 35 30 1
			vertex 35 35 1
		endloop
	endfacet
	facet normal -1 0 0
		outer loop
			vertex 30 35 1
			vertex 30 30 1
			vertex 30 35 1.399999976158142
		endloop
	endfacet
	facet normal -1 0 0
		outer loop
			vertex 30 30 1
			vertex 30 30 1.399999976158142
			vertex 30 35 1.399999976158142
		endloop
	endfacet
	facet normal 0 1 0
		outer loop
			vertex 30 35 1
			vertex 30 35 1.399999976158142
			vertex 35 35 1
		endloop
	endfacet
	facet normal 0 1 0
		outer loop
			vertex 30 35 1.399999976158142
			vertex 35 35 1.399999976158142
			vertex 35 35 1
		endloop
	endfacet
	facet normal 0 -1 0
		outer loop
			vertex 30 30 1.399999976158142
			vertex 30 30 1
			vertex 35 30 1.399999976158142
		endloop
	endfacet
	facet normal 0 -1 0
		outer loop
			vertex 30 30 1
			vertex 35 30 1
			vertex 35 30 1.399999976158142
		endloop
	endfacet
	facet normal 0 0 1
		outer loop
			vertex 30 35 1.399999976158142
			vertex 30 30 1.399999976158142
			vertex 35 35 1.399999976158142
		endloop
	endfacet
	facet normal 0 0 1
		outer loop
			vertex 30 30 1.399999976158142
			vertex 35 30 1.399999976158142
			vertex 35 35 1.399999976158142
		endloop
	endfacet
	facet normal 0 0 -1
		outer loop
			vertex 35 35 1
			vertex 35 30 1
			vertex 30 35 1
		endloop
	endfacet
	facet normal 0 0 -1
		outer loop
			vertex 35 30 1
			vertex 30 30 1
			vertex 30 35 1
		endloop
	endfacet
	facet normal 1 0 0
		outer loop
			vertex 10 30 1.399999976158142
			vertex 10 25 1.399999976158142
			vertex 10 30 1
		endloop
	endfacet
	facet normal 1 0 0
		outer loop
			vertex 10 25 1.399999976158142
			vertex 10 25 1
			vertex 10 30 1
		endloop
	endfacet
	facet normal -1 0 0
		outer loop
			vertex 5 30 1
			vertex 5 25 1
			vertex 5 30 1.399999976158142
		endloop
	endfacet
	facet normal -1 0 0
		outer loop
			vertex 5 25 1
			vertex 5 25 1.399999976158142
			vertex 5 30 1.399999976158142
		endloop
	endfacet
	facet normal 0 1 0
		outer loop
			vertex 5 30 1
			vertex 5 30 1.399999976158142
			vertex 10 30 1
		endloop
	endfacet
	facet normal 0 1 0
		outer loop
			vertex 5 30 1.399999976158142
			vertex 10 30 1.399999976158142
			vertex 10 30 1
		endloop
	endfacet
	facet normal 0 -1 0
		outer loop
			vertex 5 25 1.399999976158142
			vertex 5 25 1
			vertex 10 25 1.399999976158142
		endloop
	endfacet
	facet normal 0 -1 0
		outer loop
			vertex 5 25 1
			vertex 10 25 1
			vertex 10 25 1.399999976158142
		endloop
	endfacet
	facet normal 0 0 1
		outer loop
			vertex 5 30 1.399999976158142
			vertex 5 25 1.399999976158142
			vertex 10 30 1.399999976158142
		endloop
	endfacet
	facet normal 0 0 1
		outer loop
			vertex 5 25 1.399999976158142
			vertex 10 25 1.399999976158142
			vertex 10 30 1.399999976158142
		endloop
	endfacet
	facet normal 0 0 -1
		outer loop
			vertex 10 30 1
			vertex 10 25 1
			vertex 5 30 1
		endloop
	endfacet
	facet normal 0 0 -1
		outer loop
			vertex 10 25 1
			vertex 5 25 1
			vertex 5 30 1
		endloop
	endfacet
	facet normal 1 0 0
		outer loop
			vertex 15 30 1.399999976158142
			vertex 15 25 1.399999976158142
			vertex 15 30 1
		endloop
	endfacet
	facet normal 1 0 0
		outer loop
			vertex 15 25 1.399999976158142
			vertex 15 25 1
			vertex 15 30 1
		endloop
	endfacet
	facet normal -1 0 0
		outer loop
			vertex 10 30 1
			vertex 10 25 1
			vertex 10 30 1.399999976158142
		endloop
	endfacet
	facet normal -1 0 0
		outer loop
			vertex 10 25 1
			vertex 10 25 1.399999976158142
			vertex 10 30 1.399999976158142
		endloop
	endfacet
	facet normal 0 1 0
		outer loop
			vertex 10 30 1
			vertex 10 30 1.399999976158142
			vertex 15 30 1
		endloop
	endfacet
	facet normal 0 1 0
		outer loop
			vertex 10 30 1.399999976158142
			vertex 15 30 1.399999976158142
			vertex 15 30 1
		endloop
	endfacet
	facet normal 0 -1 0
		outer loop
			vertex 10 25 1.399999976158142
			vertex 10 25 1
			vertex 15 25 1.399999976158142
		endloop
	endfacet
	facet normal 0 -1 0
		outer loop
			vertex 10 25 1
			vertex 15 25 1
			vertex 15 25 1.399999976158142
		endloop
	endfacet
	facet normal 0 0 1
		outer loop
			vertex 10 30 1.399999976158142
			vertex 10 25 1.399999976158142
			vertex 15 30 1.399999976158142
		endloop
	endfacet
	facet normal 0 0 1
		outer loop
			vertex 10 25 1.399999976158142
			vertex 15 25 1.399999976158142
			vertex 15 30 1.399999976158142
		endloop
	endfacet
	facet normal 0 0 -1
		outer loop
			vertex 15 30 1
			vertex 15 25 1
			vertex 10 30 1
		endloop
	endfacet
	facet normal 0 0 -1
		outer loop
			vertex 15 25 1
			vertex 10 25 1
			vertex 10 30 1
		endloop
	endfacet
	facet normal 1 0 0
		outer loop
			vertex 20 30 1.399999976158142
			vertex 20 25 1.399999976158142
			vertex 20 30 1
		endloop
	endfacet
	facet normal 1 0 0
		outer loop
			vertex 20 25 1.399999976158142
			vertex 20 25 1
			vertex 20 30 1
		endloop
	endfacet
	facet normal -1 0 0
		outer loop
			vertex 15 30 1
			vertex 15 25 1
			vertex 15 30 1.399999976158142
		endloop
	endfacet
	facet normal -1 0 0
		outer loop
			vertex 15 25 1
			vertex 15 25 1.399999976158142
			vertex 15 30 1.399999976158142
		endloop
	endfacet
	facet normal 0 1 0
		outer loop
			vertex 15 30 1
			vertex 15 30 1.399999976158142
			vertex 20 30 1
		endloop
	endfacet
	facet normal 0 1 0
		outer loop
			vertex 15 30 1.399999976158142
			vertex 20 30 1.399999976158142
			vertex 20 30 1
		endloop
	endfacet
	facet normal 0 -1 0
		outer loop
			vertex 15 25 1.399999976158142
			vertex 15 25 1
			vertex 20 25 1.399999976158142
		endloop
	endfacet
	facet normal 0 -1 0
		outer loop
			vertex 15 25 1
			vertex 20 25 1
			vertex 20 25 1.399999976158142
		endloop
	endfacet
	facet normal 0 0 1
		outer loop
			vertex 15 30 1.399999976158142
			vertex 15 25 1.399999976158142
			vertex 20 30 1.399999976158142
		endloop
	endfacet
	facet normal 0 0 1
		outer loop
			vertex 15 25 1.399999976158142
			vertex 20 25 1.399999976158142
			vertex 20 30 1.399999976158142
		endloop
	endfacet
	facet normal 0 0 -1
		outer loop
			vertex 20 30 1
			vertex 20 25 1
			vertex 15 30 1
		endloop
	endfacet
	facet normal 0 0 -1
		outer loop
			vertex 20 25 1
			vertex 15 25 1
			vertex 15 30 1
		endloop
	endfacet
	facet normal 1 0 0
		outer loop
			vertex 25 30 1.399999976158142
			vertex 25 25 1.399999976158142
			vertex 25 30 1
		endloop
	endfacet
	facet normal 1 0 0
		outer loop
			vertex 25 25 1.399999976158142
			vertex 25 25 1
			vertex 25 30 1
		endloop
	endfacet
	facet normal -1 0 0
		outer loop
			vertex 20 30 1
			vertex 20 25 1
			vertex 20 30 1.399999976158142
		endloop
	endfacet
	facet normal -1 0 0
		outer loop
			vertex 20 25 1
			vertex 20 25 1.399999976158142
			vertex 20 30 1.399999976158142
		endloop
	endfacet
	facet normal 0 1 0
		outer loop
			vertex 20 30 1
			vertex 20 30 1.399999976158142
			vertex 25 30 1
		endloop
	endfacet
	facet normal 0 1 0
		outer loop
			vertex 20 30 1.399999976158142
			vertex 25 30 1.399999976158142
			vertex 25 30 1
		endloop
	endfacet
	facet normal 0 -1 0
		outer loop
			vertex 20 25 1.399999976158142
			vertex 20 25 1
			vertex 25 25 1.399999976158142
		endloop
	endfacet
	facet normal 0 -1 0
		outer loop
			vertex 20 25 1
			vertex 25 25 1
			vertex 25 25 1.399999976158142
		endloop
	endfacet
	facet normal 0 0 1
		outer loop
			vertex 20 30 1.399999976158142
			vertex 20 25 1.399999976158142
			vertex 25 30 1.399999976158142
		endloop
	endfacet
	facet normal 0 0 1
		outer loop
			vertex 20 25 1.399999976158142
			vertex 25 25 1.399999976158142
			vertex 25 30 1.399999976158142
		endloop
	endfacet
	facet normal 0 0 -1
		outer loop
			vertex 25 30 1
			vertex 25 25 1
			vertex 20 30 1
		endloop
	endfacet
	facet normal 0 0 -1
		outer loop
			vertex 25 25 1
			vertex 20 25 1
			vertex 20 30 1
		endloop
	endfacet
	facet normal 1 0 0
		outer loop
			vertex 30 30 1.399999976158142
			vertex 30 25 1.399999976158142
			vertex 30 30 1
		endloop
	endfacet
	facet normal 1 0 0
		outer loop
			vertex 30 25 1.399999976158142
			vertex 30 25 1
			vertex 30 30 1
		endloop
	endfacet
	facet normal -1 0 0
		outer loop
			vertex 25 30 1
			vertex 25 25 1
			vertex 25 30 1.399999976158142
		endloop
	endfacet
	facet normal -1 0 0
		outer loop
			vertex 25 25 1
			vertex 25 25 1.399999976158142
			vertex 25 30 1.399999976158142
		endloop
	endfacet
	facet normal 0 1 0
		outer loop
			vertex 25 30 1
			vertex 25 30 1.399999976158142
			vertex 30 30 1
		endloop
	endfacet
	facet normal 0 1 0
		outer loop
			vertex 25 30 1.399999976158142
			vertex 30 30 1.399999976158142
			vertex 30 30 1
		endloop
	endfacet
	facet normal 0 -1 0
		outer loop
			vertex 25 25 1.399999976158142
			vertex 25 25 1
			vertex 30 25 1.399999976158142
		endloop
	endfacet
	facet normal 0 -1 0
		outer loop
			vertex 25 25 1
			vertex 30 25 1
			vertex 30 25 1.399999976158142
		endloop
	endfacet
	facet normal 0 0 1
		outer loop
			vertex 25 30 1.399999976158142
			vertex 25 25 1.399999976158142
			vertex 30 30 1.399999976158142
		endloop
	endfacet
	facet normal 0 0 1
		outer loop
			vertex 25 25 1.399999976158142
			vertex 30 25 1.399999976158142
			vertex 30 30 1.399999976158142
		endloop
	endfacet
	facet normal 0 0 -1
		outer loop
			vertex 30 30 1
			vertex 30 25 1
			vertex 25 30 1
		endloop
	endfacet
	facet normal 0 0 -1
		outer loop
			vertex 30 25 1
			vertex 25 25 1
			vertex 25 30 1
		endloop
	endfacet
	facet normal 1 0 0
		outer loop
			vertex 35 30 1.399999976158142
			vertex 35 25 1.399999976158142
			vertex 35 30 1
		endloop
	endfacet
	facet normal 1 0 0
		outer loop
			vertex 35 25 1.399999976158142
			vertex 35 25 1
			vertex 35 30 1
		endloop
	endfacet
	facet normal -1 0 0
		outer loop
			vertex 30 30 1
			vertex 30 25 1
			vertex 30 30 1.399999976158142
		endloop
	endfacet
	facet normal -1 0 0
		outer loop
			vertex 30 25 1
			vertex 30 25 1.399999976158142
			vertex 30 30 1.399999976158142
		endloop
	endfacet
	facet normal 0 1 0
		outer loop
			vertex 30 30 1
			vertex 30 30 1.399999976158142
			vertex 35 30 1
		endloop
	endfacet
	facet normal 0 1 0
		outer loop
			vertex 30 30 1.399999976158142
			vertex 35 30 1.399999976158142
			vertex 35 30 1
		endloop
	endfacet
	facet normal 0 -1 0
		outer loop
			vertex 30 25 1.399999976158142
			vertex 30 25 1
			vertex 35 25 1.399999976158142
		endloop
	endfacet
	facet normal 0 -1 0
		outer loop
			vertex 30 25 1
			vertex 35 25 1
			vertex 35 25 1.399999976158142
		endloop
	endfacet
	facet normal 0 0 1
		outer loop
			vertex 30 30 1.399999976158142
			vertex 30 25 1.399999976158142
			vertex 35 30 1.399999976158142
		endloop
	endfacet
	facet normal 0 0 1
		outer loop
			vertex 30 25 1.399999976158142
			vertex 35 25 1.399999976158142
			vertex 35 30 1.399999976158142
		endloop
	endfacet
	facet normal 0 0 -1
		outer loop
			vertex 35 30 1
			vertex 35 25 1
			vertex 30 30 1
		endloop
	endfacet
	facet normal 0 0 -1
		outer loop
			vertex 35 25 1
			vertex 30 25 1
			vertex 30 30 1
		endloop
	endfacet
	facet normal 1 0 0
		outer loop
			vertex 10 25 1.399999976158142
			vertex 10 20 1.399999976158142
			vertex 10 25 1
		endloop
	endfacet
	facet normal 1 0 0
		outer loop
			vertex 10 20 1.399999976158142
			vertex 10 20 1
			vertex 10 25 1
		endloop
	endfacet
	facet normal -1 0 0
		outer loop
			vertex 5 25 1
			vertex 5 20 1
			vertex 5 25 1.399999976158142
		endloop
	endfacet
	facet normal -1 0 0
		outer loop
			vertex 5 20 1
			vertex 5 20 1.399999976158142
			vertex 5 25 1.399999976158142
		endloop
	endfacet
	facet normal 0 1 0
		outer loop
			vertex 5 25 1
			vertex 5 25 1.399999976158142
			vertex 10 25 1
		endloop
	endfacet
	facet normal 0 1 0
		outer loop
			vertex 5 25 1.399999976158142
			vertex 10 25 1.399999976158142
			vertex 10 25 1
		endloop
	endfacet
	facet normal 0 -1 0
		outer loop
			vertex 5 20 1.399999976158142
			vertex 5 20 1
			vertex 10 20 1.399999976158142
		endloop
	endfacet
	facet normal 0 -1 0
		outer loop
			vertex 5 20 1
			vertex 10 20 1
			vertex 10 20 1.399999976158142
		endloop
	endfacet
	facet normal 0 0 1
		outer loop
			vertex 5 25 1.399999976158142
			vertex 5 20 1.399999976158142
			vertex 10 25 1.399999976158142
		endloop
	endfacet
	facet normal 0 0 1
		outer loop
			vertex 5 20 1.399999976158142
			vertex 10 20 1.399999976158142
			vertex 10 25 1.399999976158142
		endloop
	endfacet
	facet normal 0 0 -1
		outer loop
			vertex 10 25 1
			vertex 10 20 1
			vertex 5 25 1
		endloop
	endfacet
	facet normal 0 0 -1
		outer loop
			vertex 10 20 1
			vertex 5 20 1
			vertex 5 25 1
		endloop
	endfacet
	facet normal 1 0 0
		outer loop
			vertex 35 25 1.399999976158142
			vertex 35 20 1.399999976158142
			vertex 35 25 1
		endloop
	endfacet
	facet normal 1 0 0
		outer loop
			vertex 35 20 1.399999976158142
			vertex 35 20 1
			vertex 35 25 1
		endloop
	endfacet
	facet normal -1 0 0
		outer loop
			vertex 30 25 1
			vertex 30 20 1
			vertex 30 25 1.399999976158142
		endloop
	endfacet
	facet normal -1 0 0
		outer loop
			vertex 30 20 1
			vertex 30 20 1.399999976158142
			vertex 30 25 1.399999976158142
		endloop
	endfacet
	facet normal 0 1 0
		outer loop
			vertex 30 25 1
			vertex 30 25 1.399999976158142
			vertex 35 25 1
		endloop
	endfacet
	facet normal 0 1 0
		outer loop
			vertex 30 25 1.399999976158142
			vertex 35 25 1.399999976158142
			vertex 35 25 1
		endloop
	endfacet
	facet normal 0 -1 0
		outer loop
			vertex 30 20 1.399999976158142
			vertex 30 20 1
			vertex 35 20 1.399999976158142
		endloop
	endfacet
	facet normal 0 -1 0
		outer loop
			vertex 30 20 1
			vertex 35 20 1
			vertex 35 20 1.399999976158142
		endloop
	endfacet
	facet normal 0 0 1
		outer loop
			vertex 30 25 1.399999976158142
			vertex 30 20 1.399999976158142
			vertex 35 25 1.399999976158142
		endloop
	endfacet
	facet normal 0 0 1
		outer loop
			vertex 30 20 1.399999976158142
			vertex 35 20 1.399999976158142
			vertex 35 25 1.399999976158142
		endloop
	endfacet
	facet normal 0 0 -1
		outer loop
			vertex 35 25 1
			vertex 35 20 1
			vertex 30 25 1
		endloop
	endfacet
	facet normal 0 0 -1
		outer loop
			vertex 35 20 1
			vertex 30 20 1
			vertex 30 25 1
		endloop
	endfacet
	facet normal 1 0 0
		outer loop
			vertex 10 20 1.399999976158142
			vertex 10 15 1.399999976158142
			vertex 10 20 1
		endloop
	endfacet
	facet normal 1 0 0
		outer loop
			vertex 10 15 1.399999976158142
			vertex 10 15 1
			vertex 10 20 1
		endloop
	endfacet
	facet normal -1 0 0
		outer loop
			vertex 5 20 1
			vertex 5 15 1
			vertex 5 20 1.399999976158142
		endloop
	endfacet
	facet normal -1 0 0
		outer loop
			vertex 5 15 1
			vertex 5 15 1.399999976158142
			vertex 5 20 1.399999976158142
		endloop
	endfacet
	facet normal 0 1 0
		outer loop
			vertex 5 20 1
			vertex 5 20 1.399999976158142
			vertex 10 20 1
		endloop
	endfacet
	facet normal 0 1 0
		outer loop
			vertex 5 20 1.399999976158142
			vertex 10 20 1.399999976158142
			vertex 10 20 1
		endloop
	endfacet
	facet normal 0 -1 0
		outer loop
			vertex 5 15 1.399999976158142
			vertex 5 15 1
			vertex 10 15 1.399999976158142
		endloop
	endfacet
	facet normal 0 -1 0
		outer loop
			vertex 5 15 1
			vertex 10 15 1
			vertex 10 15 1.399999976158142
		endloop
	endfacet
	facet normal 0 0 1
		outer loop
			vertex 5 20 1.399999976158142
			vertex 5 15 1.399999976158142
			vertex 10 20 1.399999976158142
		endloop
	endfacet
	facet normal 0 0 1
		outer loop
			vertex 5 15 1.399999976158142
			vertex 10 15 1.399999976158142
			vertex 10 20 1.399999976158142
		endloop
	endfacet
	facet normal 0 0 -1
		outer loop
			vertex 10 20 1
			vertex 10 15 1
			vertex 5 20 1
		endloop
	endfacet
	facet normal 0 0 -1
		outer loop
			vertex 10 15 1
			vertex 5 15 1
			vertex 5 20 1
		endloop
	endfacet
	facet normal 1 0 0
		outer loop
			vertex 20 20 1.399999976158142
			vertex 20 15 1.399999976158142
			vertex 20 20 1
		endloop
	endfacet
	facet normal 1 0 0
		outer loop
			vertex 20 15 1.399999976158142
			vertex 20 15 1
			vertex 20 20 1
		endloop
	endfacet
	facet normal -1 0 0
		outer loop
			vertex 15 20 1
			vertex 15 15 1
			vertex 15 20 1.399999976158142
		endloop
	endfacet
	facet normal -1 0 0
		outer loop
			vertex 15 15 1
			vertex 15 15 1.399999976158142
			vertex 15 20 1.399999976158142
		endloop
	endfacet
	facet normal 0 1 0
		outer loop
			vertex 15 20 1
			vertex 15 20 1.399999976158142
			vertex 20 20 1
		endloop
	endfacet
	facet normal 0 1 0
		outer loop
			vertex 15 20 1.399999976158142
			vertex 20 20 1.399999976158142
			vertex 20 20 1
		endloop
	endfacet
	facet normal 0 -1 0
		outer loop
			vertex 15 15 1.399999976158142
			vertex 15 15 1
			vertex 20 15 1.399999976158142
		endloop
	endfacet
	facet normal 0 -1 0
		outer loop
			vertex 15 15 1
			vertex 20 15 1
			vertex 20 15 1.399999976158142
		endloop
	endfacet
	facet normal 0 0 1
		outer loop
			vertex 15 20 1.399999976158142
			vertex 15 15 1.399999976158142
			vertex 20 20 1.399999976158142
		endloop
	endfacet
	facet normal 0 0 1
		outer loop
			vertex 15 15 1.399999976158142
			vertex 20 15 1.399999976158142
			vertex 20 20 1.399999976158142
		endloop
	endfacet
	facet normal 0 0 -1
		outer loop
			vertex 20 20 1
			vertex 20 15 1
			vertex 15 20 1
		endloop
	endfacet
	facet normal 0 0 -1
		outer loop
			vertex 20 15 1
			vertex 15 15 1
			vertex 15 20 1
		endloop
	endfacet
	facet normal 1 0 0
		outer loop
			vertex 25 20 1.399999976158142
			vertex 25 15 1.399999976158142
			vertex 25 20 1
		endloop
	endfacet
	facet normal 1 0 0
		outer loop
			vertex 25 15 1.399999976158142
			vertex 25 15 1
			vertex 25 20 1
		endloop
	endfacet
	facet normal -1 0 0
		outer loop
			vertex 20 20 1
			vertex 20 15 1
			vertex 20 20 1.399999976158142
		endloop
	endfacet
	facet normal -1 0 0
		outer loop
			vertex 20 15 1
			vertex 20 15 1.399999976158142
			vertex 20 20 1.399999976158142
		endloop
	endfacet
	facet normal 0 1 0
		outer loop
			vertex 20 20 1
			vertex 20 20 1.399999976158142
			vertex 25 20 1
		endloop
	endfacet
	facet normal 0 1 0
		outer loop
			vertex 20 20 1.399999976158142
			vertex 25 20 1.399999976158142
			vertex 25 20 1
		endloop
	endfacet
	facet normal 0 -1 0
		outer loop
			vertex 20 15 1.399999976158142
			vertex 20 15 1
			vertex 25 15 1.399999976158142
		endloop
	endfacet
	facet normal 0 -1 0
		outer loop
			vertex 20 15 1
			vertex 25 15 1
			vertex 25 15 1.399999976158142
		endloop
	endfacet
	facet normal 0 0 1
		outer loop
			vertex 20 20 1.399999976158142
			vertex 20 15 1.399999976158142
			vertex 25 20 1.399999976158142
		endloop
	endfacet
	facet normal 0 0 1
		outer loop
			vertex 20 15 1.399999976158142
			vertex 25 15 1.399999976158142
			vertex 25 20 1.399999976158142
		endloop
	endfacet
	facet normal 0 0 -1
		outer loop
			vertex 25 20 1
			vertex 25 15 1
			vertex 20 20 1
		endloop
	endfacet
	facet normal 0 0 -1
		outer loop
			vertex 25 15 1
			vertex 20 15 1
			vertex 20 20 1
		endloop
	endfacet
	facet normal 1 0 0
		outer loop
			vertex 35 20 1.399999976158142
			vertex 35 15 1.399999976158142
			vertex 35 20 1
		endloop
	endfacet
	facet normal 1 0 0
		outer loop
			vertex 35 15 1.399999976158142
			vertex 35 15 1
			vertex 35 20 1
		endloop
	endfacet
	facet normal -1 0 0
		outer loop
			vertex 30 20 1
			vertex 30 15 1
			vertex 30 20 1.399999976158142
		endloop
	endfacet
	facet normal -1 0 0
		outer loop
			vertex 30 15 1
			vertex 30 15 1.399999976158142
			vertex 30 20 1.399999976158142
		endloop
	endfacet
	facet normal 0 1 0
		outer loop
			vertex 30 20 1
			vertex 30 20 1.399999976158142
			vertex 35 20 1
		endloop
	endfacet
	facet normal 0 1 0
		outer loop
			vertex 30 20 1.399999976158142
			vertex 35 20 1.399999976158142
			vertex 35 20 1
		endloop
	endfacet
	facet normal 0 -1 0
		outer loop
			vertex 30 15 1.399999976158142
			vertex 30 15 1
			vertex 35 15 1.399999976158142
		endloop
	endfacet
	facet normal 0 -1 0
		outer loop
			vertex 30 15 1
			vertex 35 15 1
			vertex 35 15 1.399999976158142
		endloop
	endfacet
	facet normal 0 0 1
		outer loop
			vertex 30 20 1.399999976158142
			vertex 30 15 1.399999976158142
			vertex 35 20 1.399999976158142
		endloop
	endfacet
	facet normal 0 0 1
		outer loop
			vertex 30 15 1.399999976158142
			vertex 35 15 1.399999976158142
			vertex 35 20 1.399999976158142
		endloop
	endfacet
	facet normal 0 0 -1
		outer loop
			vertex 35 20 1
			vertex 35 15 1
			vertex 30 20 1
		endloop
	endfacet
	facet normal 0 0 -1
		outer loop
			vertex 35 15 1
			vertex 30 15 1
			vertex 30 20 1
		endloop
	endfacet
	facet normal 1 0 0
		outer loop
			vertex 10 15 1.399999976158142
			vertex 10 10 1.399999976158142
			vertex 10 15 1
		endloop
	endfacet
	facet normal 1 0 0
		outer loop
			vertex 10 10 1.399999976158142
			vertex 10 10 1
			vertex 10 15 1
		endloop
	endfacet
	facet normal -1 0 0
		outer loop
			vertex 5 15 1
			vertex 5 10 1
			vertex 5 15 1.399999976158142
		endloop
	endfacet
	facet normal -1 0 0
		outer loop
			vertex 5 10 1
			vertex 5 10 1.399999976158142
			vertex 5 15 1.399999976158142
		endloop
	endfacet
	facet normal 0 1 0
		outer loop
			vertex 5 15 1
			vertex 5 15 1.399999976158142
			vertex 10 15 1
		endloop
	endfacet
	facet normal 0 1 0
		outer loop
			vertex 5 15 1.399999976158142
			vertex 10 15 1.399999976158142
			vertex 10 15 1
		endloop
	endfacet
	facet normal 0 -1 0
		outer loop
			vertex 5 10 1.399999976158142
			vertex 5 10 1
			vertex 10 10 1.399999976158142
		endloop
	endfacet
	facet normal 0 -1 0
		outer loop
			vertex 5 10 1
			vertex 10 10 1
			vertex 10 10 1.399999976158142
		endloop
	endfacet
	facet normal 0 0 1
		outer loop
			vertex 5 15 1.399999976158142
			vertex 5 10 1.399999976158142
			vertex 10 15 1.399999976158142
		endloop
	endfacet
	facet normal 0 0 1
		outer loop
			vertex 5 10 1.399999976158142
			vertex 10 10 1.399999976158142
			vertex 10 15 1.399999976158142
		endloop
	endfacet
	facet normal 0 0 -1
		outer loop
			vertex 10 15 1
			vertex 10 10 1
			vertex 5 15 1
		endloop
	endfacet
	facet normal 0 0 -1
		outer loop
			vertex 10 10 1
			vertex 5 10 1
			vertex 5 15 1
		endloop
	endfacet
	facet normal 1 0 0
		outer loop
			vertex 20 15 1.399999976158142
			vertex 20 10 1.399999976158142
			vertex 20 15 1
		endloop
	endfacet
	facet normal 1 0 0
		outer loop
			vertex 20 10 1.399999976158142
			vertex 20 10 1
			vertex 20 15 1
		endloop
	endfacet
	facet normal -1 0 0
		outer loop
			vertex 15 15 1
			vertex 15 10 1
			vertex 15 15 1.399999976158142
		endloop
	endfacet
	facet normal -1 0 0
		outer loop
			vertex 15 10 1
			vertex 15 10 1.399999976158142
			vertex 15 15 1.399999976158142
		endloop
	endfacet
	facet normal 0 1 0
		outer loop
			vertex 15 15 1
			vertex 15 15 1.399999976158142
			vertex 20 15 1
		endloop
	endfacet
	facet normal 0 1 0
		outer loop
			vertex 15 15 1.399999976158142
			vertex 20 15 1.399999976158142
			vertex 20 15 1
		endloop
	endfacet
	facet normal 0 -1 0
		outer loop
			vertex 15 10 1.399999976158142
			vertex 15 10 1
			vertex 20 10 1.399999976158142
		endloop
	endfacet
	facet normal 0 -1 0
		outer loop
			vertex 15 10 1
			vertex 20 10 1
			vertex 20 10 1.399999976158142
		endloop
	endfacet
	facet normal 0 0 1
		outer loop
			vertex 15 15 1.399999976158142
			vertex 15 10 1.399999976158142
			vertex 20 15 1.399999976158142
		endloop
	endfacet
	facet normal 0 0 1
		outer loop
			vertex 15 10 1.399999976158142
			vertex 20 10 1.399999976158142
			vertex 20 15 1.399999976158142
		endloop
	endfacet
	facet normal 0 0 -1
		outer loop
			vertex 20 15 1
			vertex 20 10 1
			vertex 15 15 1
		endloop
	endfacet
	facet normal 0 0 -1
		outer loop
			vertex 20 10 1
			vertex 15 10 1
			vertex 15 15 1
		endloop
	endfacet
	facet normal 1 0 0
		outer loop
			vertex 30 15 1.399999976158142
			vertex 30 10 1.399999976158142
			vertex 30 15 1
		endloop
	endfacet
	facet normal 1 0 0
		outer loop
			vertex 30 10 1.399999976158142
			vertex 30 10 1
			vertex 30 15 1
		endloop
	endfacet
	facet normal -1 0 0
		outer loop
			vertex 25 15 1
			vertex 25 10 1
			vertex 25 15 1.399999976158142
		endloop
	endfacet
	facet normal -1 0 0
		outer loop
			vertex 25 10 1
			vertex 25 10 1.399999976158142
			vertex 25 15 1.399999976158142
		endloop
	endfacet
	facet normal 0 1 0
		outer loop
			vertex 25 15 1
			vertex 25 15 1.399999976158142
			vertex 30 15 1
		endloop
	endfacet
	facet normal 0 1 0
		outer loop
			vertex 25 15 1.399999976158142
			vertex 30 15 1.399999976158142
			vertex 30 15 1
		endloop
	endfacet
	facet normal 0 -1 0
		outer loop
			vertex 25 10 1.399999976158142
			vertex 25 10 1
			vertex 30 10 1.399999976158142
		endloop
	endfacet
	facet normal 0 -1 0
		outer loop
			vertex 25 10 1
			vertex 30 10 1
			vertex 30 10 1.399999976158142
		endloop
	endfacet
	facet normal 0 0 1
		outer loop
			vertex 25 15 1.399999976158142
			vertex 25 10 1.399999976158142
			vertex 30 15 1.399999976158142
		endloop
	endfacet
	facet normal 0 0 1
		outer loop
			vertex 25 10 1.399999976158142
			vertex 30 10 1.399999976158142
			vertex 30 15 1.399999976158142
		endloop
	endfacet
	facet normal 0 0 -1
		outer loop
			vertex 30 15 1
			vertex 30 10 1
			vertex 25 15 1
		endloop
	endfacet
	facet normal 0 0 -1
		outer loop
			vertex 30 10 1
			vertex 25 10 1
			vertex 25 15 1
		endloop
	endfacet
	facet normal 1 0 0
		outer loop
			vertex 35 15 1.399999976158142
			vertex 35 10 1.399999976158142
			vertex 35 15 1
		endloop
	endfacet
	facet normal 1 0 0
		outer loop
			vertex 35 10 1.399999976158142
			vertex 35 10 1
			vertex 35 15 1
		endloop
	endfacet
	facet normal -1 0 0
		outer loop
			vertex 30 15 1
			vertex 30 10 1
			vertex 30 15 1.399999976158142
		endloop
	endfacet
	facet normal -1 0 0
		outer loop
			vertex 30 10 1
			vertex 30 10 1.399999976158142
			vertex 30 15 1.399999976158142
		endloop
	endfacet
	facet normal 0 1 0
		outer loop
			vertex 30 15 1
			vertex 30 15 1.399999976158142
			vertex 35 15 1
		endloop
	endfacet
	facet normal 0 1 0
		outer loop
			vertex 30 15 1.399999976158142
			vertex 35 15 1.399999976158142
			vertex 35 15 1
		endloop
	endfacet
	facet normal 0 -1 0
		outer loop
			vertex 30 10 1.399999976158142
			vertex 30 10 1
			vertex 35 10 1.399999976158142
		endloop
	endfacet
	facet normal 0 -1 0
		outer loop
			vertex 30 10 1
			vertex 35 10 1
			vertex 35 10 1.399999976158142
		endloop
	endfacet
	facet normal 0 0 1
		outer loop
			vertex 30 15 1.399999976158142
			vertex 30 10 1.399999976158142
			vertex 35 15 1.399999976158142
		endloop
	endfacet
	facet normal 0 0 1
		outer loop
			vertex 30 10 1.399999976158142
			vertex 35 10 1.399999976158142
			vertex 35 15 1.399999976158142
		endloop
	endfacet
	facet normal 0 0 -1
		outer loop
			vertex 35 15 1
			vertex 35 10 1
			vertex 30 15 1
		endloop
	endfacet
	facet normal 0 0 -1
		outer loop
			vertex 35 10 1
			vertex 30 10 1
			vertex 30 15 1
		endloop
	endfacet
	facet normal 1 0 0
		outer loop
			vertex 10 10 1.399999976158142
			vertex 10 5 1.399999976158142
			vertex 10 10 1
		endloop
	endfacet
	facet normal 1 0 0
		outer loop
			vertex 10 5 1.399999976158142
			vertex 10 5 1
			vertex 10 10 1
		endloop
	endfacet
	facet normal -1 0 0
		outer loop
			vertex 5 10 1
			vertex 5 5 1
			vertex 5 10 1.399999976158142
		endloop
	endfacet
	facet normal -1 0 0
		outer loop
			vertex 5 5 1
			vertex 5 5 1.399999976158142
			vertex 5 10 1.399999976158142
		endloop
	endfacet
	facet normal 0 1 0
		outer loop
			vertex 5 10 1
			vertex 5 10 1.399999976158142
			vertex 10 10 1
		endloop
	endfacet
	facet normal 0 1 0
		outer loop
			vertex 5 10 1.399999976158142
			vertex 10 10 1.399999976158142
			vertex 10 10 1
		endloop
	endfacet
	facet normal 0 -1 0
		outer loop
			vertex 5 5 1.399999976158142
			vertex 5 5 1
			vertex 10 5 1.399999976158142
		endloop
	endfacet
	facet normal 0 -1 0
		outer loop
			vertex 5 5 1
			vertex 10 5 1
			vertex 10 5 1.399999976158142
		endloop
	endfacet
	facet normal 0 0 1
		outer loop
			vertex 5 10 1.399999976158142
			vertex 5 5 1.399999976158142
			vertex 10 10 1.399999976158142
		endloop
	endfacet
	facet normal 0 0 1
		outer loop
			vertex 5 5 1.399999976158142
			vertex 10 5 1.399999976158142
			vertex 10 10 1.399999976158142
		endloop
	endfacet
	facet normal 0 0 -1
		outer loop
			vertex 10 10 1
			vertex 10 5 1
			vertex 5 10 1
		endloop
	endfacet
	facet normal 0 0 -1
		outer loop
			vertex 10 5 1
			vertex 5 5 1
			vertex 5 10 1
		endloop
	endfacet
	facet normal 1 0 0
		outer loop
			vertex 15 10 1.399999976158142
			vertex 15 5 1.399999976158142
			vertex 15 10 1
		endloop
	endfacet
	facet normal 1 0 0
		outer loop
			vertex 15 5 1.399999976158142
			vertex 15 5 1
			vertex 15 10 1
		endloop
	endfacet
	facet normal -1 0 0
		outer loop
			vertex 10 10 1
			vertex 10 5 1
			vertex 10 10 1.399999976158142
		endloop
	endfacet
	facet normal -1 0 0
		outer loop
			vertex 10 5 1
			vertex 10 5 1.399999976158142
			vertex 10 10 1.399999976158142
		endloop
	endfacet
	facet normal 0 1 0
		outer loop
			vertex 10 10 1
			vertex 10 10 1.399999976158142
			vertex 15 10 1
		endloop
	endfacet
	facet normal 0 1 0
		outer loop
			vertex 10 10 1.399999976158142
			vertex 15 10 1.399999976158142
			vertex 15 10 1
		endloop
	endfacet
	facet normal 0 -1 0
		outer loop
			vertex 10 5 1.399999976158142
			vertex 10 5 1
			vertex 15 5 1.399999976158142
		endloop
	endfacet
	facet normal 0 -1 0
		outer loop
			vertex 10 5 1
			vertex 15 5 1
			vertex 15 5 1.399999976158142
		endloop
	endfacet
	facet normal 0 0 1
		outer loop
			vertex 10 10 1.399999976158142
			vertex 10 5 1.399999976158142
			vertex 15 10 1.399999976158142
		endloop
	endfacet
	facet normal 0 0 1
		outer loop
			vertex 10 5 1.399999976158142
			vertex 15 5 1.399999976158142
			vertex 15 10 1.399999976158142
		endloop
	endfacet
	facet normal 0 0 -1
		outer loop
			vertex 15 10 1
			vertex 15 5 1
			vertex 10 10 1
		endloop
	endfacet
	facet normal 0 0 -1
		outer loop
			vertex 15 5 1
			vertex 10 5 1
			vertex 10 10 1
		endloop
	endfacet
	facet normal 1 0 0
		outer loop
			vertex 20 10 1.399999976158142
			vertex 20 5 1.399999976158142
			vertex 20 10 1
		endloop
	endfacet
	facet normal 1 0 0
		outer loop
			vertex 20 5 1.399999976158142
			vertex 20 5 1
			vertex 20 10 1
		endloop
	endfacet
	facet normal -1 0 0
		outer loop
			vertex 15 10 1
			vertex 15 5 1
			vertex 15 10 1.399999976158142
		endloop
	endfacet
	facet normal -1 0 0
		outer loop
			vertex 15 5 1
			vertex 15 5 1.399999976158142
			vertex 15 10 1.399999976158142
		endloop
	endfacet
	facet normal 0 1 0
		outer loop
			vertex 15 10 1
			vertex 15 10 1.399999976158142
			vertex 20 10 1
		endloop
	endfacet
	facet normal 0 1 0
		outer loop
			vertex 15 10 1.399999976158142
			vertex 20 10 1.399999976158142
			vertex 20 10 1
		endloop
	endfacet
	facet normal 0 -1 0
		outer loop
			vertex 15 5 1.399999976158142
			vertex 15 5 1
			vertex 20 5 1.399999976158142
		endloop
	endfacet
	facet normal 0 -1 0
		outer loop
			vertex 15 5 1
			vertex 20 5 1
			vertex 20 5 1.399999976158142
		endloop
	endfacet
	facet normal 0 0 1
		outer loop
			vertex 15 10 1.399999976158142
			vertex 15 5 1.399999976158142
			vertex 20 10 1.399999976158142
		endloop
	endfacet
	facet normal 0 0 1
		outer loop
			vertex 15 5 1.399999976158142
			vertex 20 5 1.399999976158142
			vertex 20 10 1.399999976158142
		endloop
	endfacet
	facet normal 0 0 -1
		outer loop
			vertex 20 10 1
			vertex 20 5 1
			vertex 15 10 1
		endloop
	endfacet
	facet normal 0 0 -1
		outer loop
			vertex 20 5 1
			vertex 15 5 1
			vertex 15 10 1
		endloop
	endfacet
	facet normal 1 0 0
		outer loop
			vertex 25 10 1.399999976158142
			vertex 25 5 1.399999976158142
			vertex 25 10 1
		endloop
	endfacet
	facet normal 1 0 0
		outer loop
			vertex 25 5 1.399999976158142
			vertex 25 5 1
			vertex 25 10 1
		endloop
	endfacet
	facet normal -1 0 0
		outer loop
			vertex 20 10 1
			vertex 20 5 1
			vertex 20 10 1.399999976158142
		endloop
	endfacet
	facet normal -1 0 0
		outer loop
			vertex 20 5 1
			vertex 20 5 1.399999976158142
			vertex 20 10 1.399999976158142
		endloop
	endfacet
	facet normal 0 1 0
		outer loop
			vertex 20 10 1
			vertex 20 10 1.399999976158142
			vertex 25 10 1
		endloop
	endfacet
	facet normal 0 1 0
		outer loop
			vertex 20 10 1.399999976158142
			vertex 25 10 1.399999976158142
			vertex 25 10 1
		endloop
	endfacet
	facet normal 0 -1 0
		outer loop
			vertex 20 5 1.399999976158142
			vertex 20 5 1
			vertex 25 5 1.399999976158142
		endloop
	endfacet
	facet normal 0 -1 0
		outer loop
			vertex 20 5 1
			vertex 25 5 1
			vertex 25 5 1.399999976158142
		endloop
	endfacet
	facet normal 0 0 1
		outer loop
			vertex 20 10 1.399999976158142
			vertex 20 5 1.399999976158142
			vertex 25 10 1.399999976158142
		endloop
	endfacet
	facet normal 0 0 1
		outer loop
			vertex 20 5 1.399999976158142
			vertex 25 5 1.399999976158142
			vertex 25 10 1.399999976158142
		endloop
	endfacet
	facet normal 0 0 -1
		outer loop
			vertex 25 10 1
			vertex 25 5 1
			vertex 20 10 1
		endloop
	endfacet
	facet normal 0 0 -1
		outer loop
			vertex 25 5 1
			vertex 20 5 1
			vertex 20 10 1
		endloop
	endfacet
	facet normal 1 0 0
		outer loop
			vertex 30 10 1.399999976158142
			vertex 30 5 1.399999976158142
			vertex 30 10 1
		endloop
	endfacet
	facet normal 1 0 0
		outer loop
			vertex 30 5 1.399999976158142
			vertex 30 5 1
			vertex 30 10 1
		endloop
	endfacet
	facet normal -1 0 0
		outer loop
			vertex 25 10 1
			vertex 25 5 1
			vertex 25 10 1.399999976158142
		endloop
	endfacet
	facet normal -1 0 0
		outer loop
			vertex 25 5 1
			vertex 25 5 1.399999976158142
			vertex 25 10 1.399999976158142
		endloop
	endfacet
	facet normal 0 1 0
		outer loop
			vertex 25 10 1
			vertex 25 10 1.399999976158142
			vertex 30 10 1
		endloop
	endfacet
	facet normal 0 1 0
		outer loop
			vertex 25 10 1.399999976158142
			vertex 30 10 1.399999976158142
			vertex 30 10 1
		endloop
	endfacet
	facet normal 0 -1 0
		outer loop
			vertex 25 5 1.399999976158142
			vertex 25 5 1
			vertex 30 5 1.399999976158142
		endloop
	endfacet
	facet normal 0 -1 0
		outer loop
			vertex 25 5 1
			vertex 30 5 1
			vertex 30 5 1.399999976158142
		endloop
	endfacet
	facet normal 0 0 1
		outer loop
			vertex 25 10 1.399999976158142
			vertex 25 5 1.399999976158142
			vertex 30 10 1.399999976158142
		endloop
	endfacet
	facet normal 0 0 1
		outer loop
			vertex 25 5 1.399999976158142
			vertex 30 5 1.399999976158142
			vertex 30 10 1.399999976158142
		endloop
	endfacet
	facet normal 0 0 -1
		outer loop
			vertex 30 10 1
			vertex 30 5 1
			vertex 25 10 1
		endloop
	endfacet
	facet normal 0 0 -1
		outer loop
			vertex 30 5 1
			vertex 25 5 1
			vertex 25 10 1
		endloop
	endfacet
	facet normal 1 0 0
		outer loop
			vertex 35 10 1.399999976158142
			vertex 35 5 1.399999976158142
			vertex 35 10 1
		endloop
	endfacet
	facet normal 1 0 0
		outer loop
			vertex 35 5 1.399999976158142
			vertex 35 5 1
			vertex 35 10 1
		endloop
	endfacet
	facet normal -1 0 0
		outer loop
			vertex 30 10 1
			vertex 30 5 1
			vertex 30 10 1.399999976158142
		endloop
	endfacet
	facet normal -1 0 0
		outer loop
			vertex 30 5 1
			vertex 30 5 1.399999976158142
			vertex 30 10 1.399999976158142
		endloop
	endfacet
	facet normal 0 1 0
		outer loop
			vertex 30 10 1
			vertex 30 10 1.399999976158142
			vertex 35 10 1
		endloop
	endfacet
	facet normal 0 1 0
		outer loop
			vertex 30 10 1.399999976158142
			vertex 35 10 1.399999976158142
			vertex 35 10 1
		endloop
	endfacet
	facet normal 0 -1 0
		outer loop
			vertex 30 5 1.399999976158142
			vertex 30 5 1
			vertex 35 5 1.399999976158142
		endloop
	endfacet
	facet normal 0 -1 0
		outer loop
			vertex 30 5 1
			vertex 35 5 1
			vertex 35 5 1.399999976158142
		endloop
	endfacet
	facet normal 0 0 1
		outer loop
			vertex 30 10 1.399999976158142
			vertex 30 5 1.399999976158142
			vertex 35 10 1.399999976158142
		endloop
	endfacet
	facet normal 0 0 1
		outer loop
			vertex 30 5 1.399999976158142
			vertex 35 5 1.399999976158142
			vertex 35 10 1.399999976158142
		endloop
	endfacet
	facet normal 0 0 -1
		outer loop
			vertex 35 10 1
			vertex 35 5 1
			vertex 30 10 1
		endloop
	endfacet
	facet normal 0 0 -1
		outer loop
			vertex 35 5 1
			vertex 30 5 1
			vertex 30 10 1
		endloop
	endfacet
endsolid exported
